<svg xmlns="http://www.w3.org/2000/svg" width="363.751" height="362.237" viewBox="112.858 277.153 363.751 362.237">
	<path d="M282.103 282.715c57.393-3.98 102.129 19.105 130.848 45.467 29.512 27.087 53.486 66.422 57.09 119.227 3.924 57.566-18.754 99.703-45.471 129.84-27.607 31.146-65.896 53.239-118.729 57.084-56.174 4.095-100.958-18.739-130.338-44.96-30.637-27.347-54.534-66.689-57.593-118.72-3.424-58.272 17.688-99.582 44.966-130.344 19.563-22.073 46.743-41.042 80.829-51.028 12.063-3.533 25.369-5.665 38.398-6.566zm-40.925 143.981c-8.397-1.55-12.843 4.222-19.196 5.557-18.871 3.973-26.301-9.518-26.271-25.259.036-20.573 10.784-34.031 23.241-43.447 8.918-6.743 24.442-14.799 36.875-9.598 3.821 1.598 7.526 10.256 12.633 9.598 4.852-.625 7.873-9.546 7.072-15.158-1.759-12.36-17.977-17.416-33.339-16.163-15.235 1.243-31.059 7.299-42.443 15.152-10.574 7.306-21.091 19.229-26.268 29.811-10.098 20.639-1.207 53.682 11.618 67.191 8.039 8.473 26.365 18.599 42.94 16.166 12.267-1.799 22.116-11.594 21.728-26.269-2.794-3.899-4.578-6.841-8.59-7.581zm129.327-57.594c-.271 2.047 2.65 6.171 4.053 8.085 7.283 9.965 13.35 23.25 13.635 39.403.236 13.067-3.07 26.692-6.061 38.396-3.172 12.445-6.07 23.934-9.594 35.368-6.969 22.556-17.469 44.444-18.189 71.228-.182 6.6-.605 13.191 1.516 18.692 3.992 10.365 18.232 11.021 27.785 4.556 2.4-1.632 7.508-6.381 10.607-11.116 4.736-7.248 12.67-23.539 9.098-32.339-3.336-8.194-12.926-1.087-23.248-6.055-5.926-2.861-8.121-16.709-6.059-28.293 1.553-8.764 5.822-17.519 9.098-26.272 9.363-25.07 24.521-51.698 24.242-83.357-.152-18.192-8.291-36.233-25.256-34.354-3.851.42-11.037 1.783-11.627 6.058zm-98.004 30.314c-.206-8.922-5.804-17.808-11.621-20.209-5.428-2.241-19.542-.261-14.647 8.085 2.954 1.413 5.125-2.129 8.588-2.022 3.299.104 8.036 3.042 8.084 7.074.109 9.355-13.828 5.832-19.705 10.104-5.104 3.712-6.738 15.754 0 19.195 7.114 3.634 13.13-2.75 18.692-2.021 2.644.347 2.674 2.833 6.568 3.03 4.156-5.506 4.217-15.631 4.041-23.236zm11.621-11.622c-2.875-1.183-3.889-7.682-8.079-4.039 4.446 9.76 1.759 28.563 2.523 40.418 13.889-1.589.449-30.056 13.137-31.325 3.675-.37 6.847 4.421 10.607 0 .426-2.748-.176-8.021-3.031-9.093-6.102.953-9.456 6.387-15.157 4.039zm31.327-4.545c-3.301.223-5.193 2.431-6.066 6.063 1.783 2.426 6.418 2.004 9.098 3.536 1.844 2.301 2.463 9.072-.51 10.606-4.305-3.654-12.947-4.598-18.691-1.514-10.62 10.748 4.955 27.047 17.182 18.188 1.881.641 2.973 2.071 6.053 1.514 3.182-9.814 5.901-39.272-7.066-38.393zm53.547 34.859c5.447-6.071 2.785-26.705-2.021-29.808-6.684-4.32-9.17 3.971-15.16 4.042-3.943.05-7.697-4.229-13.133-3.538-2.023-1.927-2.086-7.081-6.566-5.05-1.639 4.72 0 10.022 0 15.66 0 8.758-4.689 17.691-1.008 23.238 11.549-.683-.035-24.964 9.596-26.27 2.613-.356 4.555 1.292 5.563 3.03 4.088 7.038-5.168 18.57-2.523 25.768h1.006c13.66.583 1.838-25.621 13.641-28.293 9.137 4.196 4.934 16.365 2.523 24.754 2.806-.052 6.445-1.708 8.082-3.533zm-73.254 63.152c2.347-6.361 2.597-21.272 0-28.29-4.476-12.105-22.877-18.947-37.888-14.146-.843 20.712-15.884 27.235-34.862 29.801-12.885 19.13-22.701 41.895-20.712 69.221 2.135 29.354 23.475 43.23 52.542 41.928 25.679-1.146 48.49-19.257 51.02-46.482 1.717-18.367-5.932-33.484-21.719-35.355 3.007-5.226 9.12-9.915 11.619-16.677zm35.365 4.542c8.945.81 9.688 15.898 2.014 19.195-5.234 2.266-16.514.395-19.195 4.553-2.518 3.908-1.426 17.225 1.523 20.208 4.316 4.386 11.521.922 17.17 1.007 2.723.043 3.734 1.322 6.063 1.014 15.564-2.093 14.908-33.847 5.563-46.481-3.984-5.377-10.625-8.667-16.168-8.589-5.225.088-17.996 4.003-12.125 14.655 7.598-.566 8.272-6.18 15.155-5.562z"/>
	<path fill="#FFF" d="M249.77 434.277c.388 14.675-9.461 24.47-21.728 26.269-16.576 2.433-34.901-7.693-42.94-16.166-12.825-13.511-21.716-46.554-11.618-67.191 5.177-10.581 15.693-22.505 26.268-29.811 11.384-7.854 27.208-13.909 42.443-15.152 15.363-1.253 31.581 3.803 33.339 16.163.801 5.612-2.22 14.533-7.072 15.158-5.107.658-8.813-8-12.633-9.598-12.434-5.201-27.957 2.854-36.875 9.598-12.458 9.416-23.205 22.874-23.241 43.447-.03 15.741 7.399 29.23 26.271 25.259 6.353-1.335 10.799-7.105 19.196-5.557 4.01.74 5.794 3.682 8.59 7.581zm132.362-71.234c16.965-1.881 25.104 16.16 25.256 34.354.279 31.659-14.879 58.287-24.242 83.357-3.275 8.755-7.545 17.51-9.098 26.272-2.063 11.584.133 25.431 6.059 28.293 10.322 4.968 19.912-2.141 23.248 6.054 3.572 8.801-4.361 25.092-9.098 32.34-3.1 4.735-8.207 9.484-10.607 11.116-9.553 6.466-23.793 5.811-27.785-4.556-2.121-5.501-1.697-12.094-1.516-18.692.723-26.782 11.221-48.672 18.189-71.228 3.521-11.437 6.422-22.923 9.594-35.368 2.99-11.702 6.297-25.327 6.061-38.396-.285-16.153-6.352-29.438-13.635-39.403-1.4-1.914-4.324-6.038-4.053-8.085.59-4.274 7.776-5.637 11.627-6.058z"/>
	<path fill="#FFF" d="M268.462 422.654c-3.894-.197-3.924-2.685-6.568-3.03-5.562-.729-11.578 5.653-18.692 2.021-6.738-3.441-5.104-15.483 0-19.195 5.877-4.272 19.814-.749 19.705-10.104-.048-4.033-4.785-6.973-8.084-7.075-3.463-.105-5.635 3.437-8.588 2.022-4.895-8.346 9.219-10.326 14.647-8.085 5.816 2.401 11.415 11.287 11.621 20.209.174 7.604.113 17.729-4.041 23.237zm-23.241-12.121c.164 9.521 15.338 10.522 15.66 1.513.194-5.419-4.051-9.288-10.607-7.581-3.768.985-5.09 3.747-5.053 6.068zm54.058-26.778c2.855 1.07 3.457 6.345 3.031 9.093-3.762 4.421-6.933-.37-10.607 0-12.688 1.271.752 29.736-13.137 31.325-.765-11.854 1.923-30.658-2.523-40.418 4.19-3.643 5.204 2.856 8.079 4.039 5.701 2.348 9.055-3.086 15.157-4.039z"/>
	<path fill="#FFF" d="M322.513 421.643c-3.08.559-4.172-.873-6.053-1.514-12.227 8.857-27.802-7.44-17.182-18.188 5.744-3.084 14.387-2.142 18.691 1.514 2.973-1.534 2.354-8.307.508-10.606-2.68-1.532-7.313-1.11-9.096-3.536.873-3.633 2.766-5.841 6.064-6.063 12.971-.88 10.252 28.578 7.068 38.393zm-16.156-3.535c10.711 2.986 12.025-16.506 0-13.134-8.072 2.259-2.996 12.303 0 13.134zm54.555 3.535c2.408-8.389 6.611-20.558-2.523-24.754-11.803 2.672.02 28.876-13.641 28.293h-1.006c-2.646-7.196 6.609-18.729 2.521-25.768-1.008-1.737-2.947-3.388-5.563-3.029-9.631 1.305 1.953 25.586-9.594 26.269-3.684-5.547 1.006-14.48 1.006-23.238 0-5.638-1.639-10.94 0-15.66 4.482-2.031 4.543 3.123 6.568 5.05 5.436-.691 9.188 3.588 13.131 3.539 5.992-.072 8.479-8.363 15.162-4.042 4.805 3.102 7.467 23.734 2.02 29.807-1.634 1.823-5.273 3.479-8.081 3.533z"/>
	<path d="M250.273 404.464c6.556-1.707 10.802 2.162 10.607 7.581-.321 9.011-15.496 8.01-15.66-1.513-.036-2.32 1.286-5.082 5.053-6.068zm56.084.51c12.025-3.372 10.711 16.12 0 13.134-2.996-.831-8.072-10.875 0-13.134z"/>
	<path fill="#FFF" d="M284.122 497.932c15.788 1.871 23.436 16.988 21.719 35.355-2.529 27.227-25.34 45.337-51.02 46.482-29.067 1.304-50.407-12.573-52.542-41.928-1.989-27.326 7.827-50.091 20.712-69.221 18.978-2.564 34.019-9.089 34.862-29.801 15.011-4.801 33.413 2.041 37.888 14.146 2.597 7.018 2.347 21.929 0 28.29-2.498 6.767-8.611 11.456-11.619 16.677zM246.737 466.1c-7.172 22.271 27.396 32.548 31.32 12.637 2.753-13.926-9.267-23.515-20.706-21.222-5.331 1.069-9.298 4.51-10.614 8.585zm-2.02 87.913c14.307 5.847 32.084-1.717 33.339-19.706 1.25-17.771-14.016-31.623-31.823-28.299-25.118 4.701-22.355 39.477-1.516 48.005z"/>
	<path d="M257.351 457.515c11.439-2.293 23.459 7.296 20.706 21.222-3.924 19.911-38.492 9.634-31.32-12.637 1.316-4.075 5.283-7.516 10.614-8.585z"/>
	<path fill="#FFF" d="M315.951 491.364c-5.871-10.652 6.9-14.567 12.125-14.655 5.543-.078 12.184 3.212 16.168 8.589 9.348 12.636 10.002 44.39-5.563 46.481-2.328.31-3.342-.971-6.063-1.014-5.646-.085-12.854 3.379-17.17-1.007-2.949-2.983-4.041-16.3-1.523-20.208 2.682-4.158 13.961-2.287 19.195-4.553 7.674-3.297 6.934-18.387-2.014-19.195-6.882-.618-7.556 4.996-15.155 5.562zm2.529 25.264c-.873 10.596 14.695 14.472 17.176 5.55 2.227-8.039-3.959-13.697-11.123-12.121-3.93.861-5.811 3.593-6.053 6.571z"/>
	<path d="M246.233 506.009c17.807-3.324 33.073 10.527 31.823 28.299-1.255 17.989-19.032 25.553-33.339 19.706-20.839-8.529-23.602-43.305 1.516-48.005zm78.3 4.047c7.164-1.576 13.35 4.082 11.123 12.121-2.48 8.922-18.049 5.046-17.178-5.55.244-2.977 2.125-5.709 6.055-6.571z"/>
</svg>
